# xmcd CD database file
#
# Track frame offsets:
#	150
#	12315
#	23417
#	52127
#	67765
#	85727
#	96527
#	123367
#	149760
#	174267
#	188990
#	208137
#	223962
#	249010
#	262540
#	277612
#	308377
#
# Disc length: 4322 seconds
#
# Revision: 0
# Processed by: cddbd v1.5.1PL0 Copyright (c) Steve Scherf et al.
# Submitted via: CDex 1.50beta10
#
DISCID=e110e011
DTITLE=Stevie Ray Vaughan - We Are Called Double Trouble DISC 1 Austin, Tx, 03/02/79
DYEAR=1900
DGENRE=Blues
TTITLE0=Instrumental
TTITLE1=Rude Mood
TTITLE2=Dirty Pool
TTITLE3=I'm Cryin
TTITLE4=May I Have a Talk With You
TTITLE5=Love Struck Baby
TTITLE6=All Your Love (I Miss Loving)
TTITLE7=Texas Flood
TTITLE8=So Excited - You Can Have My Husband
TTITLE9=Ti-Ni-Nee-Ni-Nu
TTITLE10=I'll Change
TTITLE11=Scratch My Back
TTITLE12=Sugar Coated Love - Scuttle Buttin
TTITLE13=Boilermaker
TTITLE14=Empty Arms
TTITLE15=Done Lost Your Good Thing Now
TTITLE16=Pride and Joy
EXTD=
EXTT0=
EXTT1=
EXTT2=
EXTT3=
EXTT4=
EXTT5=
EXTT6=
EXTT7=
EXTT8=
EXTT9=
EXTT10=
EXTT11=
EXTT12=
EXTT13=
EXTT14=
EXTT15=
EXTT16=
PLAYORDER=
